<?xml version="1.0" encoding="utf-8"?>
<!-- Generator: Adobe Illustrator 16.0.4, SVG Export Plug-In . SVG Version: 6.00 Build 0)  -->
<!DOCTYPE svg PUBLIC "-//W3C//DTD SVG 1.1//EN" "http://www.w3.org/Graphics/SVG/1.1/DTD/svg11.dtd">
<svg version="1.1" id="Capa_1" xmlns="http://www.w3.org/2000/svg" xmlns:xlink="http://www.w3.org/1999/xlink" x="0px" y="0px"
	 width="310px" height="63px" viewBox="18.5 0 310 63" enable-background="new 18.5 0 310 63" xml:space="preserve">
<g>
	<g>
		<rect x="125.186" y="39.328" fill="#FFFFFF" width="0.958" height="9.599"/>
		<polygon fill="#FFFFFF" points="142.986,39.328 142.986,46.688 136.589,39.328 136.378,39.328 136.378,48.93 137.374,48.93 
			137.374,41.659 143.718,48.93 143.934,48.93 143.934,39.328 		"/>
		<polygon fill="#FFFFFF" points="153.345,39.328 153.345,40.271 155.487,40.271 155.487,48.93 156.469,48.93 156.469,40.271 
			158.614,40.271 158.614,39.328 		"/>
		<polygon fill="#FFFFFF" points="168.033,39.328 168.033,48.93 173.498,48.93 173.498,47.99 168.993,47.99 168.993,44.221 
			173.498,44.221 173.498,43.279 168.993,43.279 168.993,40.271 173.54,40.271 173.54,39.328 		"/>
		<path fill="#FFFFFF" d="M183.278,39.328h1.914c1.066,0,1.791,0.046,2.168,0.132c0.57,0.134,1.035,0.412,1.389,0.84
			c0.359,0.431,0.539,0.96,0.539,1.584c0,0.524-0.125,0.982-0.37,1.38c-0.245,0.396-0.597,0.693-1.056,0.898
			c-0.457,0.201-1.088,0.304-1.896,0.309l3.458,4.456h-1.187l-3.455-4.456h-0.543v4.456h-0.961V39.328L183.278,39.328z
			 M184.24,40.271v3.263l1.653,0.014c0.641,0,1.113-0.06,1.422-0.184c0.309-0.122,0.55-0.317,0.721-0.581
			c0.174-0.27,0.26-0.57,0.26-0.901c0-0.321-0.086-0.612-0.263-0.874c-0.175-0.264-0.405-0.456-0.688-0.566
			c-0.285-0.112-0.753-0.17-1.412-0.17H184.24L184.24,40.271z"/>
		<polygon fill="#FFFFFF" points="205.985,39.328 205.985,46.688 199.592,39.328 199.381,39.328 199.381,48.93 200.374,48.93 
			200.374,41.659 206.718,48.93 206.933,48.93 206.933,39.328 		"/>
		<path fill="#FFFFFF" d="M221.106,41.371l1.636,3.475h-3.281L221.106,41.371z M220.991,39.328l-4.539,9.599h1.07l1.5-3.155h4.137
			l1.515,3.155h1.034l-4.48-9.599H220.991z"/>
		<polygon fill="#FFFFFF" points="234.271,39.328 234.271,40.271 236.415,40.271 236.415,48.93 237.396,48.93 237.396,40.271 
			239.537,40.271 239.537,39.328 		"/>
		<rect x="248.813" y="39.328" fill="#FFFFFF" width="0.961" height="9.599"/>
		<path fill="#FFFFFF" d="M264.581,39.087c1.454,0,2.672,0.485,3.654,1.455c0.979,0.972,1.47,2.164,1.47,3.583
			c0,1.404-0.487,2.598-1.464,3.575c-0.98,0.981-2.176,1.472-3.582,1.472c-1.428,0-2.631-0.488-3.609-1.465
			c-0.979-0.971-1.474-2.154-1.474-3.536c0-0.923,0.228-1.778,0.673-2.565c0.447-0.787,1.055-1.401,1.827-1.851
			C262.847,39.312,263.685,39.087,264.581,39.087 M264.623,40.021c-0.712,0-1.386,0.187-2.024,0.557
			c-0.635,0.37-1.129,0.867-1.488,1.495c-0.36,0.625-0.534,1.327-0.534,2.097c0,1.139,0.396,2.102,1.188,2.889
			c0.789,0.785,1.741,1.182,2.86,1.182c0.745,0,1.438-0.182,2.071-0.541c0.636-0.363,1.129-0.854,1.484-1.483
			c0.354-0.626,0.533-1.325,0.533-2.088c0-0.761-0.179-1.452-0.533-2.067c-0.355-0.615-0.854-1.108-1.505-1.48
			C266.031,40.208,265.349,40.021,264.623,40.021"/>
		<polygon fill="#FFFFFF" points="286.271,39.328 286.271,46.688 279.875,39.328 279.667,39.328 279.667,48.93 280.663,48.93 
			280.663,41.659 287.007,48.93 287.22,48.93 287.22,39.328 		"/>
		<path fill="#FFFFFF" d="M301.394,41.371l1.639,3.475h-3.283L301.394,41.371z M301.28,39.328l-4.545,9.599h1.074l1.498-3.155h4.137
			l1.515,3.155h1.04l-4.484-9.599H301.28z"/>
		<polygon fill="#FFFFFF" points="315.513,39.328 315.513,48.93 320.171,48.93 320.171,48.004 316.474,48.004 316.474,39.328 		"/>
		<path fill="#FFFFFF" d="M130.331,24.091c1.483,0,2.683-0.449,3.57-1.334c0.886-0.884,1.34-2.094,1.347-3.597l0.002-0.09h-4.32
			v1.106h3.047c-0.137,0.813-0.53,1.49-1.166,2.008c-0.667,0.543-1.491,0.814-2.455,0.814c-0.792,0-1.535-0.183-2.202-0.546
			s-1.197-0.869-1.573-1.5c-0.378-0.634-0.569-1.311-0.569-2.016c0-0.688,0.183-1.346,0.548-1.961
			c0.362-0.615,0.884-1.109,1.551-1.472c1.197-0.65,2.539-0.737,3.938-0.144c0.625,0.269,1.21,0.664,1.734,1.183l0.061,0.06
			l0.877-0.832l-0.071-0.062c-0.688-0.652-1.407-1.134-2.129-1.432c-0.727-0.296-1.51-0.446-2.334-0.446
			c-1.016,0-1.942,0.228-2.749,0.674c-0.809,0.447-1.452,1.076-1.916,1.87c-0.465,0.793-0.698,1.664-0.698,2.583
			c0,1.237,0.409,2.343,1.218,3.288C127.093,23.469,128.535,24.091,130.331,24.091"/>
		<path fill="#FFFFFF" d="M148.602,24.091c1.425,0,2.651-0.502,3.643-1.494c0.99-0.991,1.491-2.216,1.491-3.639
			c0-1.436-0.504-2.662-1.496-3.646c-0.995-0.982-2.244-1.48-3.717-1.48c-0.909,0-1.767,0.229-2.549,0.681
			c-0.782,0.455-1.407,1.086-1.859,1.884c-0.454,0.796-0.682,1.675-0.682,2.607c0,1.403,0.503,2.613,1.496,3.601
			C145.924,23.591,147.16,24.091,148.602,24.091 M144.603,19c0-0.752,0.176-1.443,0.527-2.054c0.347-0.607,0.838-1.1,1.457-1.46
			c0.62-0.361,1.284-0.544,1.977-0.544c0.707,0,1.384,0.184,2.011,0.544c0.631,0.358,1.124,0.846,1.47,1.445
			c0.347,0.598,0.52,1.279,0.52,2.023c0,0.748-0.173,1.434-0.52,2.045c-0.346,0.607-0.834,1.098-1.452,1.448
			c-0.62,0.352-1.302,0.53-2.029,0.53c-1.087,0-2.029-0.388-2.8-1.152C144.995,21.061,144.603,20.109,144.603,19"/>
		<polygon fill="#FFFFFF" points="164.016,17.143 167.329,23.801 167.353,23.85 167.71,23.85 171.001,17.194 171.91,23.772 
			171.923,23.85 173.044,23.85 171.646,14.147 171.634,14.071 171.347,14.071 167.534,21.836 163.708,14.121 163.683,14.071 
			163.394,14.071 161.995,23.85 163.103,23.85 		"/>
		<polygon fill="#FFFFFF" points="187.351,22.733 182.843,22.733 182.843,19.138 187.351,19.138 187.351,18.021 182.843,18.021 
			182.843,15.189 187.39,15.189 187.39,14.069 181.704,14.069 181.704,23.85 187.351,23.85 		"/>
		<polygon fill="#FFFFFF" points="200.502,22.733 196.741,22.733 200.696,14.2 200.754,14.069 195.453,14.069 195.453,15.178 
			199.022,15.178 195.034,23.724 194.974,23.85 200.502,23.85 		"/>
		<polygon fill="#FFFFFF" points="223.29,23.85 223.619,23.85 227.821,14.196 227.876,14.069 226.638,14.069 223.458,21.352 
			220.356,14.125 220.332,14.069 219.095,14.069 223.271,23.796 		"/>
		<path fill="#FFFFFF" d="M238.088,20.69h4.026l1.486,3.109l0.021,0.051h1.233l-4.537-9.727l-0.021-0.053h-0.349l-4.569,9.651
			l-0.059,0.127h1.269L238.088,20.69z M238.61,19.587l1.508-3.175l1.496,3.175H238.61z"/>
		<polygon fill="#FFFFFF" points="257.751,22.733 253.991,22.733 257.944,14.2 258.003,14.069 252.704,14.069 252.704,15.178 
			256.272,15.178 252.282,23.724 252.226,23.85 257.751,23.85 		"/>
		<path fill="#FFFFFF" d="M271.212,24.091c0.969,0,1.855-0.234,2.633-0.696l0.932,1.177l0.021,0.036h1.41l-1.488-1.879
			c0.539-0.523,0.947-1.094,1.215-1.699c0.271-0.622,0.406-1.316,0.406-2.064c0-1.438-0.5-2.665-1.488-3.648
			c-0.989-0.986-2.221-1.484-3.668-1.484c-0.932,0-1.803,0.228-2.586,0.677c-0.781,0.45-1.41,1.083-1.86,1.882
			c-0.456,0.799-0.688,1.677-0.688,2.612c0,1.403,0.501,2.613,1.497,3.601C268.539,23.591,269.772,24.091,271.212,24.091
			 M267.226,19c0-0.754,0.174-1.447,0.527-2.058c0.344-0.609,0.832-1.102,1.453-1.462c0.616-0.355,1.285-0.539,1.984-0.539
			s1.367,0.184,1.996,0.544c0.623,0.358,1.117,0.846,1.467,1.446c0.344,0.598,0.52,1.279,0.52,2.023
			c0,1.129-0.387,2.095-1.156,2.878l-1.656-2.09l-0.023-0.035h-1.391l2.188,2.775c-0.596,0.329-1.25,0.495-1.955,0.495
			c-1.088,0-2.027-0.388-2.791-1.152C267.614,21.061,267.226,20.109,267.226,19"/>
		<path fill="#FFFFFF" d="M286.429,23.521c0.564,0.378,1.25,0.571,2.043,0.571c0.731,0,1.365-0.205,1.881-0.607
			c0.516-0.399,0.863-0.88,1.037-1.424c0.172-0.538,0.256-1.246,0.256-2.104v-5.885h-1.14v5.885c0,0.919-0.05,1.312-0.094,1.479
			c-0.091,0.331-0.229,0.605-0.417,0.834c-0.182,0.229-0.42,0.406-0.698,0.535c-0.599,0.275-1.284,0.255-1.926-0.055
			c-0.345-0.162-0.604-0.369-0.771-0.609c-0.168-0.246-0.277-0.553-0.32-0.914c-0.024-0.162-0.037-0.576-0.037-1.271V14.07h-1.141
			v5.884c0,0.998,0.061,1.667,0.182,2.05C285.478,22.634,285.858,23.145,286.429,23.521"/>
		<polygon fill="#FFFFFF" points="306.44,22.733 301.935,22.733 301.935,19.138 306.44,19.138 306.44,18.021 301.935,18.021 
			301.935,15.189 306.481,15.189 306.481,14.069 300.796,14.069 300.796,23.85 306.44,23.85 		"/>
		<polygon fill="#FFFFFF" points="314.548,14.071 314.548,15.178 318.114,15.178 314.127,23.724 314.065,23.85 319.593,23.85 
			319.593,22.733 315.83,22.733 319.787,14.201 319.845,14.071 		"/>
		<rect x="124.154" y="31.298" fill="#FFFFFF" width="196.227" height="0.755"/>
	</g>
	<path fill="#FFFFFF" d="M26.619,5.596v51.809h79.732V5.596H26.619z M43.114,37.682c1.121,2.116,2.693,3.482,4.715,4.104
		c1.142,0.374,2.494,0.556,4.054,0.542c1.47,0.021,2.877-0.204,4.224-0.68l0.982-0.389l0.155-1.562
		c0.065-0.903,0.104-1.865,0.118-2.882l-0.186-3.067l-0.087-1.323l1.814,0.083l1.698-0.083l-0.139,1.456l-0.1,2.813l-0.034,2.83
		l0.103,1.647l0.171,1.302l-1.51,0.375c-1.585,0.398-2.906,0.655-3.969,0.779c-1.131,0.158-2.353,0.232-3.664,0.221
		c-4.127,0.012-7.314-0.967-9.563-2.934c-2.499-2.193-3.747-5.256-3.747-9.189c0.011-4.025,1.282-7.163,3.814-9.413
		c2.396-2.114,5.652-3.171,9.768-3.171c1.593,0,3.069,0.152,4.426,0.457c1.197,0.283,2.357,0.686,3.476,1.205l1.034,0.527
		l-0.509,1.237l-0.388,1.34l-0.407,0.15l-0.985-0.881c-2.1-1.672-4.402-2.508-6.901-2.508c-1.187,0-2.352,0.208-3.494,0.627
		c-1.245,0.452-2.294,1.08-3.153,1.881c-0.96,0.896-1.69,1.968-2.187,3.223c-0.646,1.595-0.963,3.284-0.953,5.069
		C41.678,33.804,42.154,35.874,43.114,37.682z M84.83,20.725l-1.168,2.562c-0.713,1.627-1.696,4.037-2.951,7.223
		c-1.627,4.126-2.85,7.152-3.664,9.071l-1.153,2.798l-0.388,1.065l-1.156-0.082l-1.27,0.082l-0.391-1.084l-1.069-2.9l-0.525-1.324
		l-3.153-7.63l-3.037-7.292l-1.05-2.392l-0.596-1.271l2.072,0.083l1.865-0.083l0.374,1.205l0.863,2.439l2.848,7.158l2.578,6.359
		l1.187,2.729l1.136-2.782l2.562-6.291c0.913-2.316,1.798-4.703,2.644-7.156l0.866-2.542l0.374-1.12l1.407,0.083l1.373-0.083
		L84.83,20.725z M92.395,37.24l0.069,2.968l0.065,1.933l0.104,1.305l-1.699-0.081l-1.814,0.081l0.068-1.271l0.069-1.931l0.068-3.021
		l0.032-3.257l0.034-5.391l-0.049-3.274l-0.083-3.018l-0.053-1.458l-0.084-1.272l1.848,0.083l1.665-0.083l-0.086,1.304L92.48,22.35
		l-0.083,2.934l-0.034,3.359v5.272L92.395,37.24z"/>
</g>
</svg>
